<svg width="800" height="900" viewBox="0 0 800 900" fill="none" xmlns="http://www.w3.org/2000/svg">
<rect width="800" height="900" fill="#090909"/>
<defs>
<linearGradient id="c1" x1="0" y1="0" x2="800" y2="900" gradientUnits="userSpaceOnUse">
<stop stop-color="#5EE7DF"/><stop offset="0.45" stop-color="#7F7FD5"/><stop offset="1" stop-color="#E74C3C"/>
</linearGradient>
</defs>
<g opacity="0.95">
  <path d="M0 122C102 98 168 178 256 196C340 214 415 173 484 133C580 77 670 60 800 110V900H0V122Z" fill="url(#c1)" opacity="0.22"/>
  <path d="M0 244C96 182 193 214 268 262C356 317 441 358 552 304C638 262 727 228 800 282" stroke="url(#c1)" stroke-width="18"/>
  <path d="M0 368C88 302 187 344 284 388C374 428 447 437 536 398C630 357 708 336 800 390" stroke="url(#c1)" stroke-width="18"/>
  <path d="M0 494C112 454 208 497 296 536C382 574 467 590 564 558C641 532 723 516 800 548" stroke="url(#c1)" stroke-width="18"/>
  <path d="M0 640C96 600 179 618 290 676C393 730 487 732 578 700C662 671 745 676 800 710" stroke="url(#c1)" stroke-width="18"/>
  <path d="M0 748C100 710 178 718 262 760C364 810 474 819 588 787C673 764 739 774 800 808" stroke="url(#c1)" stroke-width="18"/>
</g>
</svg>